<?xml version="1.0" encoding="UTF-8"?>
<svg width="714px" height="714px" viewBox="0 0 714 714" version="1.1" xmlns="http://www.w3.org/2000/svg" xmlns:xlink="http://www.w3.org/1999/xlink">
    <!-- Generator: Sketch 52.4 (67378) - http://www.bohemiancoding.com/sketch -->
    <title>Scan</title>
    <desc>Created with Sketch.</desc>
    <defs>
        <linearGradient x1="50%" y1="0%" x2="50%" y2="100%" id="linearGradient-1">
            <stop stop-color="#FFC62C" stop-opacity="0" offset="0%"></stop>
            <stop stop-color="#FF6663" stop-opacity="0.1" offset="100%"></stop>
        </linearGradient>
        <path d="M9.33947368,0 L158.771053,0 L149.431579,181.198852 C148.52775,222.823355 113.904912,255.536842 72.3809211,255.536842 C32.1647963,255.536842 4.82552716e-15,223.733055 0,183.521914 C-1.30419653e-16,183.42549 0.0247071111,182.350024 0,181.198852 L9.33947368,0 Z" id="path-2"></path>
        <linearGradient x1="0%" y1="84.0596594%" x2="100%" y2="0%" id="linearGradient-4">
            <stop stop-color="#000000" stop-opacity="0.1" offset="0%"></stop>
            <stop stop-color="#FF6663" stop-opacity="0" offset="100%"></stop>
        </linearGradient>
        <path d="M314.10337,289.127448 C334.98019,296.254576 349.386529,315.9047 349.003744,337.50945 C348.57053,362.7356 333.095733,382.703063 312.543811,388.983748 C300.131444,459.680845 216.639334,514.410955 171.011835,514.410955 C121.636394,514.410955 27.9202995,450.320266 27.9202995,371.260395 C32.5736828,334.744843 34.9003744,315.104568 34.9003744,312.339572 C34.9003744,309.574575 32.5736828,288.868892 27.9202995,250.222523 C27.9202995,171.162652 91.9845619,107.071964 171.011835,107.071964 C250.039107,107.071964 314.10337,171.162652 314.10337,250.222523 L314.10337,289.127448 Z" id="path-5"></path>
        <linearGradient x1="50%" y1="0%" x2="50%" y2="100%" id="linearGradient-6">
            <stop stop-color="#1F1845" stop-opacity="0" offset="0%"></stop>
            <stop stop-color="#000000" stop-opacity="0.2" offset="100%"></stop>
        </linearGradient>
        <path d="M313.686852,428.266523 L316.430061,374.751872 L314.10337,334.87602 C290.513497,321.768314 274.549612,296.589163 274.549612,267.679909 C274.549612,261.230475 275.344138,254.966689 276.84061,248.981168 C275.695607,249.03267 274.543975,249.058698 273.386266,249.058698 C234.444993,249.058698 202.378789,219.610888 198.224252,181.760546 C186.525906,187.589224 173.334814,190.867413 159.378376,190.867413 C138.633759,190.867413 119.580048,183.624794 104.605966,171.529262 C98.0213949,174.961388 90.5359496,176.901505 82.5975528,176.901505 C71.9581606,176.901505 62.1323852,173.416561 54.1985636,167.525454 C42.4781236,184.064685 34.1791825,203.201456 30.333559,223.903521 C11.7736441,208.106415 0,184.568863 0,158.280294 C0,113.512156 34.1440534,76.7220788 77.8013821,72.5510004 C90.3077514,39.6629439 122.115083,16.2935597 159.378376,16.2935597 C174.941654,16.2935597 189.553207,20.3700546 202.204359,27.5139505 C221.004647,10.4190862 245.979204,0 273.386266,0 C329.608297,0 375.594057,43.844763 379.043094,99.2205125 C420.195903,106.784706 451.378176,142.855401 451.378176,186.21211 C451.378176,210.522878 441.57442,232.542911 425.70632,248.531255 C427.276372,254.652552 428.111259,261.068691 428.111259,267.679909 C428.111259,293.179727 415.690762,315.777387 396.5719,329.748394 C397.42117,334.534916 397.864268,339.461893 397.864268,344.492404 C397.864268,390.133113 359.127511,427.251396 313.686852,428.266523 Z" id="path-7"></path>
        <linearGradient x1="64.0162101%" y1="22.9658099%" x2="0%" y2="100%" id="linearGradient-8">
            <stop stop-color="#000000" stop-opacity="0.1" offset="0%"></stop>
            <stop stop-color="#FF6663" stop-opacity="0" offset="100%"></stop>
        </linearGradient>
        <linearGradient x1="54.6753109%" y1="100%" x2="54.6753109%" y2="-6.88367696%" id="linearGradient-9">
            <stop stop-color="#C74D75" stop-opacity="0" offset="0%"></stop>
            <stop stop-color="#AF3B6E" stop-opacity="0.2" offset="100%"></stop>
        </linearGradient>
        <linearGradient x1="53.5251615%" y1="0%" x2="50%" y2="100%" id="linearGradient-10">
            <stop stop-color="#C74D75" stop-opacity="0" offset="0%"></stop>
            <stop stop-color="#AF3B6E" stop-opacity="0.2" offset="100%"></stop>
        </linearGradient>
        <path d="M650.972877,344.786842 L63.0271283,344.786842 C57.9531226,356.39999 46.365124,364.515789 32.8815789,364.515789 C14.7215843,364.515789 0,349.794205 0,331.634211 C0,313.474216 14.7215843,298.752632 32.8815789,298.752632 C46.365124,298.752632 57.9531226,306.868431 63.0271228,318.481578 L650.972877,318.481579 C656.046877,306.868431 667.634876,298.752632 681.118421,298.752632 C699.278416,298.752632 714,313.474216 714,331.634211 C714,349.794205 699.278416,364.515789 681.118421,364.515789 C667.634876,364.515789 656.046877,356.39999 650.972877,344.786842 Z" id="path-11"></path>
    </defs>
    <g id="Handsome" stroke="none" stroke-width="1" fill="none" fill-rule="evenodd">
        <g id="Artboard" transform="translate(-2470.000000, -1268.000000)">
            <g id="Scan" transform="translate(2470.000000, 1268.000000)">
                <path d="M528.453947,28.1842105 C520.671093,28.1842105 514.361842,21.8749601 514.361842,14.0921053 C514.361842,6.30925043 520.671093,0 528.453947,0 L671.723684,0 C695.072249,0 714,18.9277513 714,42.2763158 L714,185.546053 C714,193.328907 707.69075,199.638158 699.907895,199.638158 C692.12504,199.638158 685.815789,193.328907 685.815789,185.546053 L685.815789,42.2763158 C685.815789,34.493461 679.506539,28.1842105 671.723684,28.1842105 L528.453947,28.1842105 Z M685.815789,528.453947 C685.815789,520.671093 692.12504,514.361842 699.907895,514.361842 C707.69075,514.361842 714,520.671093 714,528.453947 L714,671.723684 C714,695.072249 695.072249,714 671.723684,714 L528.453947,714 C520.671093,714 514.361842,707.69075 514.361842,699.907895 C514.361842,692.12504 520.671093,685.815789 528.453947,685.815789 L671.723684,685.815789 C679.506539,685.815789 685.815789,679.506539 685.815789,671.723684 L685.815789,528.453947 Z M185.546053,685.815789 C193.328907,685.815789 199.638158,692.12504 199.638158,699.907895 C199.638158,707.69075 193.328907,714 185.546053,714 L42.2763158,714 C18.9277513,714 1.42108547e-14,695.072249 1.42108547e-14,671.723684 L1.42108547e-14,528.453947 C1.42108547e-14,520.671093 6.30925043,514.361842 14.0921053,514.361842 C21.8749601,514.361842 28.1842105,520.671093 28.1842105,528.453947 L28.1842105,671.723684 C28.1842105,679.506539 34.493461,685.815789 42.2763158,685.815789 L185.546053,685.815789 Z M28.1842105,185.546053 C28.1842105,193.328907 21.8749601,199.638158 14.0921053,199.638158 C6.30925043,199.638158 0,193.328907 0,185.546053 L0,42.2763158 C0,18.9277513 18.9277513,0 42.2763158,0 L185.546053,0 C193.328907,0 199.638158,6.30925043 199.638158,14.0921053 C199.638158,21.8749601 193.328907,28.1842105 185.546053,28.1842105 L42.2763158,28.1842105 C34.493461,28.1842105 28.1842105,34.493461 28.1842105,42.2763158 L28.1842105,185.546053 Z" id="Detail" fill="#393E41" fill-rule="nonzero"></path>
                <g id="Face" transform="translate(131.526316, 42.276316)">
                    <g id="Neck" transform="translate(159.710526, 373.910526)">
                        <mask id="mask-3" fill="white">
                            <use xlink:href="#path-2"></use>
                        </mask>
                        <g>
                            <use fill="#FFC62C" xlink:href="#path-2"></use>
                            <use fill="url(#linearGradient-1)" xlink:href="#path-2"></use>
                        </g>
                        <path d="M151.297329,90.5518421 C120.630852,133.401176 67.0568917,162.528947 32.587117,162.528947 C23.8633249,162.528947 12.2659751,159.994854 0,155.563421 L6.98295365,0 L155.952632,0 L151.297329,90.5518421 Z" id="Sh" fill="url(#linearGradient-4)" mask="url(#mask-3)"></path>
                    </g>
                    <g>
                        <use fill="#FFC62C" xlink:href="#path-5"></use>
                        <use fill="url(#linearGradient-1)" xlink:href="#path-5"></use>
                    </g>
                    <g id="Hair">
                        <use fill="#1F1845" xlink:href="#path-7"></use>
                        <use fill="url(#linearGradient-6)" xlink:href="#path-7"></use>
                    </g>
                    <path d="M280.031506,295.566333 C277.872827,295.596512 274.271366,295.611725 273.386266,295.611725 C234.444993,295.611725 202.378789,266.163916 198.224252,228.313574 C186.525906,234.142252 173.334814,237.420441 159.378376,237.420441 C138.633759,237.420441 119.580048,230.177821 104.605966,218.08229 C98.0213949,221.514416 90.5359496,223.454533 82.5975528,223.454533 C71.9581606,223.454533 62.1323852,219.969588 54.1985636,214.078482 C42.4810893,230.613528 34.1833827,249.744799 30.3364792,270.440833 C29.6163152,264.358583 28.8109219,257.619147 27.9202995,250.222523 C27.9202995,219.414986 37.6481656,190.880451 54.1985697,167.525445 C62.1323852,173.416561 71.9581606,176.901505 82.5975528,176.901505 C90.5359496,176.901505 98.0213949,174.961388 104.605966,171.529262 C119.580048,183.624794 138.633759,190.867413 159.378376,190.867413 C173.334814,190.867413 186.525906,187.589224 198.224252,181.760546 C202.378789,219.610888 234.444993,249.058698 273.386266,249.058698 C274.543975,249.058698 275.695607,249.03267 276.84061,248.981168 C275.344138,254.966689 276.333236,261.507538 276.84061,267.951878 C279.131609,297.050649 280.696375,295.557038 280.031506,295.566333 Z" id="Sh" fill="url(#linearGradient-8)"></path>
                </g>
                <polygon id="Bg" fill="url(#linearGradient-9)" points="0 329.755263 714 329.755263 714 695.210526 0 695.210526"></polygon>
                <g id="Detail">
                    <use fill="#FF6663" xlink:href="#path-11"></use>
                    <use fill="url(#linearGradient-10)" xlink:href="#path-11"></use>
                </g>
            </g>
        </g>
    </g>
</svg>